<mxfile host="app.diagrams.net" agent="Mozilla/5.0 (X11; Linux x86_64) AppleWebKit/537.36 (KHTML, like Gecko) Chrome/129.0.0.0 Safari/537.36" version="24.8.2">
  <diagram name="PÃ gina-1" id="mhbHxmUa4zc_a_H4eHv1">
    <mxGraphModel dx="2074" dy="1146" grid="1" gridSize="10" guides="1" tooltips="1" connect="1" arrows="1" fold="1" page="1" pageScale="1" pageWidth="827" pageHeight="1169" math="0" shadow="0">
      <root>
        <mxCell id="0" />
        <mxCell id="1" parent="0" />
        <mxCell id="32PYH6IdJp8VXiElenj8-19" value="&lt;i style=&quot;font-size: 16px;&quot;&gt;&lt;font style=&quot;font-size: 12px;&quot;&gt;Commit inicial&lt;/font&gt;&lt;/i&gt;" style="ellipse;whiteSpace=wrap;html=1;fillColor=#f5f5f5;fontColor=#333333;strokeColor=#666666;" vertex="1" parent="1">
          <mxGeometry x="210" y="210" width="60" height="60" as="geometry" />
        </mxCell>
        <mxCell id="32PYH6IdJp8VXiElenj8-20" style="rounded=0;orthogonalLoop=1;jettySize=auto;html=1;" edge="1" parent="1" source="32PYH6IdJp8VXiElenj8-21" target="32PYH6IdJp8VXiElenj8-19">
          <mxGeometry relative="1" as="geometry" />
        </mxCell>
        <mxCell id="32PYH6IdJp8VXiElenj8-21" value="&lt;i style=&quot;font-size: 16px;&quot;&gt;&lt;font style=&quot;font-size: 12px;&quot;&gt;Menjar&lt;/font&gt;&lt;/i&gt;" style="ellipse;whiteSpace=wrap;html=1;fillColor=#f5f5f5;fontColor=#333333;strokeColor=#666666;" vertex="1" parent="1">
          <mxGeometry x="450" y="210" width="60" height="60" as="geometry" />
        </mxCell>
        <mxCell id="32PYH6IdJp8VXiElenj8-22" style="rounded=0;orthogonalLoop=1;jettySize=auto;html=1;exitX=0.5;exitY=1;exitDx=0;exitDy=0;fillColor=#dae8fc;strokeColor=#6c8ebf;" edge="1" parent="1" source="32PYH6IdJp8VXiElenj8-23" target="32PYH6IdJp8VXiElenj8-21">
          <mxGeometry relative="1" as="geometry">
            <mxPoint x="439" y="230" as="targetPoint" />
          </mxGeometry>
        </mxCell>
        <mxCell id="32PYH6IdJp8VXiElenj8-23" value="menjar" style="ellipse;whiteSpace=wrap;html=1;fillColor=#dae8fc;strokeColor=#6c8ebf;fontSize=16;fontStyle=1" vertex="1" parent="1">
          <mxGeometry x="500" y="140" width="100" height="40" as="geometry" />
        </mxCell>
        <mxCell id="32PYH6IdJp8VXiElenj8-24" value="&lt;i style=&quot;font-size: 16px;&quot;&gt;&lt;font style=&quot;font-size: 12px;&quot;&gt;Beguda&lt;/font&gt;&lt;/i&gt;" style="ellipse;whiteSpace=wrap;html=1;fillColor=#f5f5f5;fontColor=#333333;strokeColor=#666666;" vertex="1" parent="1">
          <mxGeometry x="450" y="370" width="60" height="60" as="geometry" />
        </mxCell>
        <mxCell id="32PYH6IdJp8VXiElenj8-25" style="rounded=0;orthogonalLoop=1;jettySize=auto;html=1;exitX=0.5;exitY=1;exitDx=0;exitDy=0;fillColor=#dae8fc;strokeColor=#6c8ebf;" edge="1" parent="1" source="32PYH6IdJp8VXiElenj8-26" target="32PYH6IdJp8VXiElenj8-24">
          <mxGeometry relative="1" as="geometry">
            <mxPoint x="399" y="375" as="targetPoint" />
          </mxGeometry>
        </mxCell>
        <mxCell id="32PYH6IdJp8VXiElenj8-26" value="beguda" style="ellipse;whiteSpace=wrap;html=1;fillColor=#dae8fc;strokeColor=#6c8ebf;fontSize=16;fontStyle=1" vertex="1" parent="1">
          <mxGeometry x="430" y="300" width="100" height="40" as="geometry" />
        </mxCell>
        <mxCell id="32PYH6IdJp8VXiElenj8-27" style="rounded=0;orthogonalLoop=1;jettySize=auto;html=1;" edge="1" parent="1" source="32PYH6IdJp8VXiElenj8-24" target="32PYH6IdJp8VXiElenj8-19">
          <mxGeometry relative="1" as="geometry">
            <mxPoint x="485" y="188.5" as="sourcePoint" />
            <mxPoint x="337" y="331.5" as="targetPoint" />
          </mxGeometry>
        </mxCell>
        <mxCell id="32PYH6IdJp8VXiElenj8-29" style="rounded=0;orthogonalLoop=1;jettySize=auto;html=1;exitX=0.5;exitY=1;exitDx=0;exitDy=0;fillColor=#d5e8d4;strokeColor=#82b366;" edge="1" parent="1" source="32PYH6IdJp8VXiElenj8-30" target="32PYH6IdJp8VXiElenj8-21">
          <mxGeometry relative="1" as="geometry">
            <mxPoint x="715" y="210" as="targetPoint" />
          </mxGeometry>
        </mxCell>
        <mxCell id="32PYH6IdJp8VXiElenj8-30" value="main" style="ellipse;whiteSpace=wrap;html=1;fillColor=#d5e8d4;strokeColor=#82b366;fontSize=16;fontStyle=1" vertex="1" parent="1">
          <mxGeometry x="364" y="140" width="100" height="40" as="geometry" />
        </mxCell>
        <mxCell id="32PYH6IdJp8VXiElenj8-31" style="edgeStyle=orthogonalEdgeStyle;rounded=0;orthogonalLoop=1;jettySize=auto;html=1;exitX=0.5;exitY=1;exitDx=0;exitDy=0;fillColor=#f5f5f5;strokeColor=#666666;" edge="1" parent="1" source="32PYH6IdJp8VXiElenj8-32" target="32PYH6IdJp8VXiElenj8-30">
          <mxGeometry relative="1" as="geometry">
            <mxPoint x="590" y="135" as="targetPoint" />
          </mxGeometry>
        </mxCell>
        <mxCell id="32PYH6IdJp8VXiElenj8-32" value="HEAD" style="ellipse;whiteSpace=wrap;html=1;fillColor=#f5f5f5;strokeColor=#666666;fontSize=16;fontStyle=1;fontColor=#333333;" vertex="1" parent="1">
          <mxGeometry x="364" y="65" width="100" height="40" as="geometry" />
        </mxCell>
        <mxCell id="32PYH6IdJp8VXiElenj8-33" style="rounded=0;orthogonalLoop=1;jettySize=auto;html=1;exitX=0.5;exitY=1;exitDx=0;exitDy=0;fillColor=#d5e8d4;strokeColor=#82b366;dashed=1;opacity=50;" edge="1" parent="1" source="32PYH6IdJp8VXiElenj8-34" target="32PYH6IdJp8VXiElenj8-19">
          <mxGeometry relative="1" as="geometry">
            <mxPoint x="240" y="210" as="targetPoint" />
          </mxGeometry>
        </mxCell>
        <mxCell id="32PYH6IdJp8VXiElenj8-34" value="main" style="ellipse;whiteSpace=wrap;html=1;fillColor=#d5e8d4;strokeColor=#82b366;fontSize=16;fontStyle=1;dashed=1;opacity=50;textOpacity=50;" vertex="1" parent="1">
          <mxGeometry x="190" y="140" width="100" height="40" as="geometry" />
        </mxCell>
        <mxCell id="32PYH6IdJp8VXiElenj8-35" style="edgeStyle=orthogonalEdgeStyle;rounded=0;orthogonalLoop=1;jettySize=auto;html=1;exitX=0.5;exitY=1;exitDx=0;exitDy=0;fillColor=#f5f5f5;strokeColor=#666666;entryX=0.5;entryY=0;entryDx=0;entryDy=0;dashed=1;opacity=50;" edge="1" parent="1" source="32PYH6IdJp8VXiElenj8-36" target="32PYH6IdJp8VXiElenj8-34">
          <mxGeometry relative="1" as="geometry" />
        </mxCell>
        <mxCell id="32PYH6IdJp8VXiElenj8-36" value="HEAD" style="ellipse;whiteSpace=wrap;html=1;fillColor=#f5f5f5;strokeColor=#666666;fontSize=16;fontStyle=1;fontColor=#333333;dashed=1;gradientColor=none;opacity=50;textOpacity=50;" vertex="1" parent="1">
          <mxGeometry x="190" y="65" width="100" height="40" as="geometry" />
        </mxCell>
        <mxCell id="32PYH6IdJp8VXiElenj8-37" value="" style="endArrow=classic;html=1;rounded=0;fillColor=#dae8fc;strokeColor=#6c8ebf;strokeWidth=3;" edge="1" parent="1">
          <mxGeometry width="50" height="50" relative="1" as="geometry">
            <mxPoint x="260" y="120" as="sourcePoint" />
            <mxPoint x="380" y="120" as="targetPoint" />
          </mxGeometry>
        </mxCell>
      </root>
    </mxGraphModel>
  </diagram>
</mxfile>
